Nunito-ExtraBold.ufo
<glyph name="quotedbl" format="1">
  <advance width="838"/>
  <unicode hex="0022"/>
  <outline>
    <contour>
      <point x="242" y="940" type="curve" smooth="yes"/>
      <point x="283" y="940"/>
      <point x="316" y="969"/>
      <point x="323" y="1041" type="curve" smooth="yes"/>
      <point x="355" y="1380" type="line" smooth="yes"/>
      <point x="355.129" y="1382.16"/>
      <point x="355.193" y="1384.29"/>
      <point x="355.193" y="1386.37" type="curve" smooth="yes"/>
      <point x="355.193" y="1448.91"/>
      <point x="298.16" y="1477"/>
      <point x="243" y="1477" type="curve" smooth="yes"/>
      <point x="185" y="1477"/>
      <point x="127" y="1442"/>
      <point x="130" y="1384" type="curve" smooth="yes"/>
      <point x="130" y="1383"/>
      <point x="149" y="1169"/>
      <point x="163" y="1030" type="curve" smooth="yes"/>
      <point x="169" y="965"/>
      <point x="206" y="940"/>
    </contour>
    <contour>
      <point x="588" y="940" type="curve" smooth="yes"/>
      <point x="630" y="940"/>
      <point x="662" y="967"/>
      <point x="669" y="1041" type="curve" smooth="yes"/>
      <point x="700" y="1380" type="line" smooth="yes"/>
      <point x="700.129" y="1382.13"/>
      <point x="700.193" y="1384.23"/>
      <point x="700.193" y="1386.29" type="curve" smooth="yes"/>
      <point x="700.193" y="1447.97"/>
      <point x="643.223" y="1477"/>
      <point x="590" y="1477" type="curve" smooth="yes"/>
      <point x="531" y="1477"/>
      <point x="474" y="1442"/>
      <point x="477" y="1384" type="curve" smooth="yes"/>
      <point x="477" y="1383"/>
      <point x="495" y="1169"/>
      <point x="510" y="1030" type="curve" smooth="yes"/>
      <point x="516" y="964"/>
      <point x="552" y="940"/>
    </contour>
  </outline>
</glyph>
<glyph name="dollar" format="1">
  <advance width="1120"/>
  <unicode hex="0024"/>
  <outline>
    <contour>
      <point x="487" y="0" type="line" smooth="yes"/>
      <point x="487" y="-45.7256"/>
      <point x="519.877" y="-67.5187"/>
      <point x="553.302" y="-67.5187" type="curve" smooth="yes"/>
      <point x="587.858" y="-67.5187"/>
      <point x="623" y="-44.2244"/>
      <point x="623" y="0" type="curve" smooth="yes"/>
      <point x="623" y="196.649" type="line"/>
      <point x="820.755" y="215.452"/>
      <point x="964.138" y="320.998"/>
      <point x="964.138" y="512.655" type="curve" smooth="yes"/>
      <point x="964.138" y="688.843"/>
      <point x="852.342" y="764.152"/>
      <point x="644" y="817" type="curve" smooth="yes"/>
      <point x="496" y="854" type="line"/>
      <point x="399" y="877"/>
      <point x="366" y="900"/>
      <point x="366" y="959" type="curve" smooth="yes"/>
      <point x="366" y="1027.39"/>
      <point x="455.154" y="1050.03"/>
      <point x="535.35" y="1050.03" type="curve" smooth="yes"/>
      <point x="640.738" y="1050.03"/>
      <point x="738.545" y="1012.51"/>
      <point x="783" y="997" type="curve" smooth="yes"/>
      <point x="798.032" y="991.41"/>
      <point x="811.968" y="988.906"/>
      <point x="824.641" y="988.906" type="curve" smooth="yes"/>
      <point x="875.021" y="988.906"/>
      <point x="905.45" y="1028.47"/>
      <point x="905.45" y="1070.99" type="curve" smooth="yes"/>
      <point x="905.45" y="1103.87"/>
      <point x="887.249" y="1138.52"/>
      <point x="846" y="1158" type="curve" smooth="yes"/>
      <point x="789.47" y="1184.5"/>
      <point x="715.776" y="1216.46"/>
      <point x="607" y="1227.69" type="curve"/>
      <point x="607" y="1438" type="line" smooth="yes"/>
      <point x="607" y="1482.22"/>
      <point x="571.858" y="1505.52"/>
      <point x="537.302" y="1505.52" type="curve" smooth="yes"/>
      <point x="503.877" y="1505.52"/>
      <point x="471" y="1483.73"/>
      <point x="471" y="1438" type="curve" smooth="yes"/>
      <point x="471" y="1230.38" type="line"/>
      <point x="258.842" y="1216.91"/>
      <point x="115.996" y="1116.92"/>
      <point x="115.996" y="944.588" type="curve" smooth="yes"/>
      <point x="115.996" y="748.035"/>
      <point x="235.016" y="702.273"/>
      <point x="452" y="642" type="curve"/>
      <point x="601" y="603" type="line" smooth="yes"/>
      <point x="689.911" y="579.762"/>
      <point x="731.025" y="541.064"/>
      <point x="731.025" y="494.496" type="curve" smooth="yes"/>
      <point x="731.025" y="400.126"/>
      <point x="624.928" y="374.75"/>
      <point x="531.24" y="374.75" type="curve" smooth="yes"/>
      <point x="397.751" y="374.75"/>
      <point x="313.21" y="428.338"/>
      <point x="259" y="458" type="curve" smooth="yes"/>
      <point x="239.89" y="468.485"/>
      <point x="221.781" y="473.021"/>
      <point x="205.307" y="473.021" type="curve" smooth="yes"/>
      <point x="153.664" y="473.021"/>
      <point x="118.083" y="428.442"/>
      <point x="118.083" y="382.79" type="curve" smooth="yes"/>
      <point x="118.083" y="356.891"/>
      <point x="129.534" y="330.647"/>
      <point x="156" y="312" type="curve" smooth="yes"/>
      <point x="230.806" y="259.089"/>
      <point x="335.571" y="209.498"/>
      <point x="487" y="196.649" type="curve"/>
    </contour>
  </outline>
</glyph>
<glyph name="ampersand" format="1">
  <advance width="1565"/>
  <unicode hex="0026"/>
  <outline>
    <contour>
      <point x="632" y="-26" type="curve" smooth="yes"/>
      <point x="851" y="-26"/>
      <point x="976" y="55"/>
      <point x="1079" y="159" type="curve"/>
      <point x="1225" y="8" type="line" smooth="yes"/>
      <point x="1245" y="-12"/>
      <point x="1263" y="-19"/>
      <point x="1286" y="-19" type="curve" smooth="yes"/>
      <point x="1350" y="-19"/>
      <point x="1429" y="54"/>
      <point x="1429" y="119" type="curve" smooth="yes"/>
      <point x="1429" y="135"/>
      <point x="1424" y="155"/>
      <point x="1408" y="172" type="curve" smooth="yes"/>
      <point x="1269" y="316" type="line"/>
      <point x="1372" y="474"/>
      <point x="1413" y="730"/>
      <point x="1420" y="854" type="curve" smooth="yes"/>
      <point x="1423" y="913"/>
      <point x="1365" y="952"/>
      <point x="1310" y="952" type="curve" smooth="yes"/>
      <point x="1264" y="952"/>
      <point x="1211" y="940"/>
      <point x="1199" y="888" type="curve"/>
      <point x="1189" y="751"/>
      <point x="1169" y="612"/>
      <point x="1101" y="487" type="curve"/>
      <point x="782" y="819" type="line"/>
      <point x="933" y="923"/>
      <point x="1031" y="1050"/>
      <point x="1031" y="1216" type="curve" smooth="yes"/>
      <point x="1031" y="1404"/>
      <point x="853" y="1499"/>
      <point x="655" y="1499" type="curve" smooth="yes"/>
      <point x="457" y="1500"/>
      <point x="238" y="1398"/>
      <point x="238" y="1206" type="curve" smooth="yes"/>
      <point x="238" y="1062"/>
      <point x="314" y="963"/>
      <point x="421" y="858" type="curve"/>
      <point x="222" y="749"/>
      <point x="74" y="631"/>
      <point x="74" y="399" type="curve" smooth="yes"/>
      <point x="74" y="121"/>
      <point x="311" y="-26"/>
    </contour>
    <contour>
      <point x="649" y="186" type="curve" smooth="yes"/>
      <point x="501" y="186"/>
      <point x="350" y="262"/>
      <point x="350" y="425" type="curve" smooth="yes"/>
      <point x="350" y="542"/>
      <point x="452" y="615"/>
      <point x="575" y="679" type="curve"/>
      <point x="928" y="300" type="line"/>
      <point x="888" y="244"/>
      <point x="774" y="186"/>
    </contour>
    <contour>
      <point x="629" y="977" type="curve"/>
      <point x="560" y="1039"/>
      <point x="482" y="1133"/>
      <point x="482" y="1215" type="curve" smooth="yes"/>
      <point x="482" y="1303"/>
      <point x="565" y="1344"/>
      <point x="646" y="1344" type="curve" smooth="yes"/>
      <point x="724" y="1344"/>
      <point x="805" y="1299"/>
      <point x="805" y="1215" type="curve" smooth="yes"/>
      <point x="805" y="1117"/>
      <point x="705" y="1046"/>
    </contour>
  </outline>
</glyph>
<glyph name="two" format="1">
  <advance width="1266"/>
  <unicode hex="0032"/>
  <outline>
    <contour>
      <point x="1096" y="1031" type="curve" smooth="yes"/>
      <point x="1096" y="1261.2"/>
      <point x="905.915" y="1449.2"/>
      <point x="621.802" y="1449.2" type="curve" smooth="yes"/>
      <point x="449.37" y="1449.2"/>
      <point x="311.849" y="1394.57"/>
      <point x="193" y="1325" type="curve" smooth="yes"/>
      <point x="152.696" y="1301.46"/>
      <point x="136.885" y="1269.1"/>
      <point x="136.885" y="1236.29" type="curve" smooth="yes"/>
      <point x="136.885" y="1169.55"/>
      <point x="202.28" y="1100.95"/>
      <point x="260.035" y="1100.95" type="curve" smooth="yes"/>
      <point x="270.411" y="1100.95"/>
      <point x="280.541" y="1103.16"/>
      <point x="290" y="1108" type="curve" smooth="yes"/>
      <point x="376" y="1154"/>
      <point x="444" y="1213"/>
      <point x="592" y="1213" type="curve" smooth="yes"/>
      <point x="708" y="1213"/>
      <point x="807" y="1134"/>
      <point x="807" y="1018" type="curve" smooth="yes"/>
      <point x="807" y="951"/>
      <point x="772" y="878"/>
      <point x="690" y="799" type="curve"/>
      <point x="174" y="288" type="line" smooth="yes"/>
      <point x="134.82" y="248.439"/>
      <point x="115.752" y="197.302"/>
      <point x="115.752" y="149.121" type="curve" smooth="yes"/>
      <point x="115.752" y="70.6399"/>
      <point x="166.341" y="-1.42109e-14"/>
      <point x="263" y="0" type="curve" smooth="yes"/>
      <point x="983" y="0" type="line" smooth="yes"/>
      <point x="1043" y="0"/>
      <point x="1073" y="60"/>
      <point x="1073" y="119" type="curve" smooth="yes"/>
      <point x="1073" y="178"/>
      <point x="1043" y="235"/>
      <point x="983" y="235" type="curve" smooth="yes"/>
      <point x="446" y="235" type="line"/>
      <point x="857" y="589" type="line" smooth="yes"/>
      <point x="1025" y="734"/>
      <point x="1096" y="886"/>
    </contour>
  </outline>
</glyph>
<glyph name="six" format="1">
  <advance width="1258"/>
  <unicode hex="0036"/>
  <outline>
    <contour>
      <point x="654" y="-22" type="curve" smooth="yes"/>
      <point x="982" y="-22"/>
      <point x="1184" y="184"/>
      <point x="1184" y="469" type="curve" smooth="yes"/>
      <point x="1184" y="752"/>
      <point x="964" y="925"/>
      <point x="709" y="925" type="curve" smooth="yes"/>
      <point x="518" y="925"/>
      <point x="420" y="844"/>
      <point x="386" y="783" type="curve"/>
      <point x="386" y="1055"/>
      <point x="459" y="1247"/>
      <point x="723" y="1247" type="curve" smooth="yes"/>
      <point x="798" y="1247"/>
      <point x="879" y="1227"/>
      <point x="964" y="1198" type="curve" smooth="yes"/>
      <point x="1078" y="1160"/>
      <point x="1144" y="1371"/>
      <point x="1038" y="1416" type="curve"/>
      <point x="940" y="1462"/>
      <point x="826" y="1486"/>
      <point x="724" y="1486" type="curve" smooth="yes"/>
      <point x="222" y="1486"/>
      <point x="78" y="1105"/>
      <point x="78" y="658" type="curve" smooth="yes"/>
      <point x="78" y="272"/>
      <point x="238" y="-22"/>
    </contour>
    <contour>
      <point x="644" y="201" type="curve" smooth="yes"/>
      <point x="500" y="201"/>
      <point x="406" y="298"/>
      <point x="406" y="455" type="curve" smooth="yes"/>
      <point x="406" y="629"/>
      <point x="495" y="730"/>
      <point x="663" y="729" type="curve" smooth="yes"/>
      <point x="816" y="728"/>
      <point x="891" y="618"/>
      <point x="891" y="460" type="curve" smooth="yes"/>
      <point x="891" y="290"/>
      <point x="797" y="201"/>
    </contour>
  </outline>
</glyph>
<glyph name="E" format="1">
  <advance width="1253"/>
  <unicode hex="0045"/>
  <outline>
    <contour>
      <point x="682" y="0" type="move" name="bot"/>
    </contour>
    <contour>
      <point x="835" y="9" type="move" name="ogonek"/>
    </contour>
    <contour>
      <point x="666" y="1438" type="move" name="top"/>
    </contour>
    <contour>
      <point x="318" y="0" type="curve" smooth="yes"/>
      <point x="1049" y="0" type="line" smooth="yes"/>
      <point x="1119" y="0"/>
      <point x="1165" y="56"/>
      <point x="1165" y="119" type="curve" smooth="yes"/>
      <point x="1165" y="182"/>
      <point x="1119" y="240"/>
      <point x="1049" y="240" type="curve" smooth="yes"/>
      <point x="475" y="240" type="line"/>
      <point x="475" y="619" type="line"/>
      <point x="984" y="619" type="line" smooth="yes"/>
      <point x="1056" y="619"/>
      <point x="1105" y="674"/>
      <point x="1105" y="737" type="curve" smooth="yes"/>
      <point x="1105" y="800"/>
      <point x="1057" y="856"/>
      <point x="984" y="856" type="curve" smooth="yes"/>
      <point x="475" y="856" type="line"/>
      <point x="475" y="1206" type="line"/>
      <point x="1026" y="1206" type="line" smooth="yes"/>
      <point x="1098" y="1206"/>
      <point x="1146" y="1263"/>
      <point x="1146" y="1325" type="curve" smooth="yes"/>
      <point x="1146" y="1389"/>
      <point x="1098" y="1446"/>
      <point x="1026" y="1446" type="curve" smooth="yes"/>
      <point x="343" y="1446" type="line" smooth="yes"/>
      <point x="200" y="1446"/>
      <point x="161" y="1355"/>
      <point x="161" y="1236" type="curve" smooth="yes"/>
      <point x="161" y="193" type="line" smooth="yes"/>
      <point x="161" y="98"/>
      <point x="214" y="0"/>
    </contour>
  </outline>
</glyph>
<glyph name="P" format="1">
  <advance width="1345"/>
  <unicode hex="0050"/>
  <outline>
    <contour>
      <point x="702" y="1438" type="move" name="top"/>
    </contour>
    <contour>
      <point x="321" y="0" type="curve" smooth="yes"/>
      <point x="407" y="0"/>
      <point x="482" y="68"/>
      <point x="482" y="168" type="curve" smooth="yes"/>
      <point x="482" y="565" type="line"/>
      <point x="753" y="565" type="line" smooth="yes"/>
      <point x="1097" y="565"/>
      <point x="1305" y="697"/>
      <point x="1305" y="1007" type="curve" smooth="yes"/>
      <point x="1305" y="1345"/>
      <point x="1078" y="1447"/>
      <point x="765" y="1447" type="curve" smooth="yes"/>
      <point x="351" y="1447" type="line" smooth="yes"/>
      <point x="203" y="1447"/>
      <point x="161" y="1350"/>
      <point x="161" y="1229" type="curve" smooth="yes"/>
      <point x="161" y="168" type="line" smooth="yes"/>
      <point x="161" y="68"/>
      <point x="235" y="0"/>
    </contour>
    <contour>
      <point x="482" y="779" type="line"/>
      <point x="482" y="1220" type="line"/>
      <point x="728" y="1220" type="line" smooth="yes"/>
      <point x="894" y="1220"/>
      <point x="990" y="1188"/>
      <point x="990" y="1007" type="curve" smooth="yes"/>
      <point x="990" y="822"/>
      <point x="894" y="782"/>
      <point x="717" y="779" type="curve" smooth="yes"/>
    </contour>
  </outline>
</glyph>
<glyph name="U" format="1">
  <advance width="1521"/>
  <unicode hex="0055"/>
  <outline>
    <contour>
      <point x="921" y="9" type="move" name="ogonek"/>
    </contour>
    <contour>
      <point x="774" y="1438" type="move" name="top"/>
    </contour>
    <contour>
      <point x="760" y="-30" type="curve" smooth="yes"/>
      <point x="1104" y="-30"/>
      <point x="1369" y="144"/>
      <point x="1369" y="495" type="curve" smooth="yes"/>
      <point x="1369" y="1282" type="line" smooth="yes"/>
      <point x="1369" y="1381"/>
      <point x="1295" y="1450"/>
      <point x="1209" y="1450" type="curve" smooth="yes"/>
      <point x="1123" y="1450"/>
      <point x="1048" y="1381"/>
      <point x="1048" y="1282" type="curve" smooth="yes"/>
      <point x="1048" y="502" type="line" smooth="yes"/>
      <point x="1048" y="296"/>
      <point x="903" y="210"/>
      <point x="760" y="210" type="curve" smooth="yes"/>
      <point x="618" y="210"/>
      <point x="474" y="296"/>
      <point x="474" y="502" type="curve" smooth="yes"/>
      <point x="474" y="1282" type="line" smooth="yes"/>
      <point x="473" y="1381"/>
      <point x="398" y="1450"/>
      <point x="312" y="1450" type="curve" smooth="yes"/>
      <point x="226" y="1450"/>
      <point x="152" y="1381"/>
      <point x="152" y="1282" type="curve" smooth="yes"/>
      <point x="152" y="495" type="line" smooth="yes"/>
      <point x="152" y="141"/>
      <point x="417" y="-30"/>
    </contour>
  </outline>
</glyph>
<glyph name="bracketleft" format="1">
  <advance width="743"/>
  <unicode hex="005B"/>
  <outline>
    <contour>
      <point x="311" y="-235" type="curve" smooth="yes"/>
      <point x="536" y="-235" type="line"/>
      <point x="609" y="-232"/>
      <point x="646" y="-190"/>
      <point x="646" y="-132" type="curve" smooth="yes"/>
      <point x="646" y="-72"/>
      <point x="606" y="-32"/>
      <point x="536" y="-32" type="curve" smooth="yes"/>
      <point x="428" y="-32" type="line"/>
      <point x="428" y="1243" type="line"/>
      <point x="536" y="1243" type="line" smooth="yes"/>
      <point x="606" y="1243"/>
      <point x="646" y="1285"/>
      <point x="646" y="1345" type="curve" smooth="yes"/>
      <point x="646" y="1399"/>
      <point x="610" y="1446"/>
      <point x="548" y="1446" type="curve" smooth="yes"/>
      <point x="311" y="1446" type="line" smooth="yes"/>
      <point x="229" y="1446"/>
      <point x="170" y="1393"/>
      <point x="170" y="1314" type="curve" smooth="yes"/>
      <point x="170" y="-76" type="line" smooth="yes"/>
      <point x="170" y="-188"/>
      <point x="224" y="-235"/>
    </contour>
  </outline>
</glyph>
<glyph name="asciicircum" format="1">
  <advance width="1300"/>
  <unicode hex="005E"/>
  <outline>
    <contour>
      <point x="260" y="527" type="curve" smooth="yes"/>
      <point x="306" y="527"/>
      <point x="338" y="565"/>
      <point x="365" y="621" type="curve" smooth="yes"/>
      <point x="662" y="1220" type="line"/>
      <point x="960" y="621" type="line" smooth="yes"/>
      <point x="987" y="569"/>
      <point x="1018" y="530"/>
      <point x="1064" y="530" type="curve" smooth="yes"/>
      <point x="1116" y="530"/>
      <point x="1159" y="565"/>
      <point x="1159" y="619" type="curve" smooth="yes"/>
      <point x="1159" y="641"/>
      <point x="1145" y="673"/>
      <point x="1134" y="699" type="curve"/>
      <point x="804" y="1349" type="line" smooth="yes"/>
      <point x="767" y="1425"/>
      <point x="725" y="1468"/>
      <point x="663" y="1468" type="curve" smooth="yes"/>
      <point x="593" y="1468"/>
      <point x="552" y="1413"/>
      <point x="521" y="1349" type="curve" smooth="yes"/>
      <point x="191" y="699" type="line" smooth="yes"/>
      <point x="178" y="673"/>
      <point x="164" y="642"/>
      <point x="164" y="621" type="curve" smooth="yes"/>
      <point x="164" y="563"/>
      <point x="208" y="527"/>
    </contour>
  </outline>
</glyph>
<glyph name="h" format="1">
  <advance width="1213"/>
  <unicode hex="0068"/>
  <outline>
    <contour>
      <point x="265" y="0" type="curve" smooth="yes"/>
      <point x="356" y="0"/>
      <point x="406" y="57"/>
      <point x="406" y="163" type="curve" smooth="yes"/>
      <point x="406" y="576" type="line" smooth="yes"/>
      <point x="406" y="736"/>
      <point x="516" y="837"/>
      <point x="636" y="837" type="curve" smooth="yes"/>
      <point x="735" y="837"/>
      <point x="813" y="770"/>
      <point x="813" y="634" type="curve" smooth="yes"/>
      <point x="813" y="163" type="line" smooth="yes"/>
      <point x="813" y="57"/>
      <point x="865" y="0"/>
      <point x="951" y="0" type="curve" smooth="yes"/>
      <point x="1042" y="0"/>
      <point x="1091" y="57"/>
      <point x="1091" y="163" type="curve" smooth="yes"/>
      <point x="1092" y="642" type="line" smooth="yes"/>
      <point x="1092" y="899"/>
      <point x="927" y="1017"/>
      <point x="748" y="1021" type="curve" smooth="yes"/>
      <point x="584" y="1026"/>
      <point x="469" y="965"/>
      <point x="405" y="863" type="curve"/>
      <point x="405" y="1284" type="line" smooth="yes"/>
      <point x="405" y="1389"/>
      <point x="353" y="1446"/>
      <point x="263" y="1446" type="curve" smooth="yes"/>
      <point x="176" y="1446"/>
      <point x="127" y="1389"/>
      <point x="127" y="1284" type="curve" smooth="yes"/>
      <point x="127" y="163" type="line" smooth="yes"/>
      <point x="127" y="57"/>
      <point x="179" y="0"/>
    </contour>
  </outline>
</glyph>
<glyph name="s" format="1">
  <advance width="999"/>
  <unicode hex="0073"/>
  <outline>
    <contour>
      <point x="504" y="0" type="move" name="bot"/>
    </contour>
    <contour>
      <point x="515" y="1005" type="move" name="top"/>
    </contour>
    <contour>
      <point x="506" y="-14" type="curve" smooth="yes"/>
      <point x="753" y="-22"/>
      <point x="944" y="88"/>
      <point x="938" y="315" type="curve" smooth="yes"/>
      <point x="934" y="482"/>
      <point x="823" y="557"/>
      <point x="618" y="609" type="curve" smooth="yes"/>
      <point x="470" y="646" type="line" smooth="yes"/>
      <point x="373" y="669"/>
      <point x="340" y="692"/>
      <point x="340" y="751" type="curve" smooth="yes"/>
      <point x="340" y="828"/>
      <point x="453" y="847"/>
      <point x="539" y="841" type="curve" smooth="yes"/>
      <point x="639" y="833"/>
      <point x="714" y="804"/>
      <point x="757" y="789" type="curve" smooth="yes"/>
      <point x="878" y="744"/>
      <point x="928" y="899"/>
      <point x="820" y="950" type="curve" smooth="yes"/>
      <point x="756" y="980"/>
      <point x="670" y="1017"/>
      <point x="536" y="1023" type="curve" smooth="yes"/>
      <point x="274" y="1035"/>
      <point x="89" y="932"/>
      <point x="90" y="735" type="curve" smooth="yes"/>
      <point x="90" y="540"/>
      <point x="210" y="494"/>
      <point x="426" y="434" type="curve" smooth="yes"/>
      <point x="575" y="395" type="line" smooth="yes"/>
      <point x="663" y="372"/>
      <point x="704" y="333"/>
      <point x="705" y="289" type="curve" smooth="yes"/>
      <point x="707" y="187"/>
      <point x="587" y="164"/>
      <point x="489" y="167" type="curve" smooth="yes"/>
      <point x="361" y="172"/>
      <point x="286" y="221"/>
      <point x="233" y="250" type="curve" smooth="yes"/>
      <point x="120" y="312"/>
      <point x="42" y="166"/>
      <point x="130" y="104" type="curve" smooth="yes"/>
      <point x="212" y="46"/>
      <point x="330" y="-8"/>
    </contour>
  </outline>
</glyph>
<glyph name="u" format="1">
  <advance width="1208"/>
  <unicode hex="0075"/>
  <outline>
    <contour>
      <point x="939" y="22" type="move" name="ogonek"/>
    </contour>
    <contour>
      <point x="600" y="991" type="move" name="top"/>
    </contour>
    <contour>
      <point x="475" y="-12" type="curve" smooth="yes"/>
      <point x="639" y="-12"/>
      <point x="746" y="50"/>
      <point x="804" y="170" type="curve"/>
      <point x="804" y="141" type="line" smooth="yes"/>
      <point x="804" y="48"/>
      <point x="856" y="0"/>
      <point x="941" y="0" type="curve" smooth="yes"/>
      <point x="1028" y="0"/>
      <point x="1082" y="47"/>
      <point x="1082" y="142" type="curve" smooth="yes"/>
      <point x="1082" y="841" type="line" smooth="yes"/>
      <point x="1082" y="947"/>
      <point x="1033" y="1004"/>
      <point x="946" y="1004" type="curve" smooth="yes"/>
      <point x="855" y="1004"/>
      <point x="804" y="947"/>
      <point x="804" y="841" type="curve" smooth="yes"/>
      <point x="804" y="436" type="line" smooth="yes"/>
      <point x="804" y="276"/>
      <point x="696" y="171"/>
      <point x="574" y="171" type="curve" smooth="yes"/>
      <point x="475" y="171"/>
      <point x="396" y="237"/>
      <point x="396" y="374" type="curve" smooth="yes"/>
      <point x="396" y="841" type="line" smooth="yes"/>
      <point x="396" y="947"/>
      <point x="347" y="1004"/>
      <point x="261" y="1004" type="curve" smooth="yes"/>
      <point x="170" y="1004"/>
      <point x="118" y="947"/>
      <point x="118" y="841" type="curve" smooth="yes"/>
      <point x="118" y="372" type="line" smooth="yes"/>
      <point x="118" y="114"/>
      <point x="285" y="-12"/>
    </contour>
  </outline>
</glyph>
<glyph name="v" format="1">
  <advance width="1076"/>
  <unicode hex="0076"/>
  <outline>
    <contour>
      <point x="540" y="-8" type="curve"/>
      <point x="540" y="278" type="line"/>
      <point x="295" y="911" type="line"/>
      <point x="229" y="1093"/>
      <point x="-12" y="998"/>
      <point x="56" y="825" type="curve" smooth="yes"/>
      <point x="305" y="220" type="line" smooth="yes"/>
      <point x="374" y="43"/>
      <point x="415" y="-8"/>
    </contour>
    <contour>
      <point x="540" y="-8" type="line"/>
      <point x="666" y="-8"/>
      <point x="706" y="44"/>
      <point x="774" y="220" type="curve"/>
      <point x="1024" y="825" type="line" smooth="yes"/>
      <point x="1093" y="998"/>
      <point x="850" y="1093"/>
      <point x="784" y="911" type="curve" smooth="yes"/>
      <point x="540" y="278" type="line"/>
    </contour>
  </outline>
</glyph>
<glyph name="asciitilde" format="1">
  <advance width="1300"/>
  <unicode hex="007E"/>
  <outline>
    <contour>
      <point x="786" y="1143" type="curve" smooth="yes"/>
      <point x="912" y="1143"/>
      <point x="971" y="1238"/>
      <point x="997" y="1322" type="curve" smooth="yes"/>
      <point x="999.286" y="1329.55"/>
      <point x="1000.34" y="1336.8"/>
      <point x="1000.34" y="1343.67" type="curve" smooth="yes"/>
      <point x="1000.34" y="1383.04"/>
      <point x="965.766" y="1409.85"/>
      <point x="931.251" y="1409.85" type="curve" smooth="yes"/>
      <point x="911.229" y="1409.85"/>
      <point x="891.226" y="1400.83"/>
      <point x="878" y="1380" type="curve" smooth="yes"/>
      <point x="851" y="1336"/>
      <point x="827" y="1309"/>
      <point x="784" y="1309" type="curve" smooth="yes"/>
      <point x="717" y="1309"/>
      <point x="619" y="1407"/>
      <point x="499" y="1407" type="curve" smooth="yes"/>
      <point x="397" y="1407"/>
      <point x="338" y="1338"/>
      <point x="295" y="1233" type="curve" smooth="yes"/>
      <point x="291.781" y="1225.3"/>
      <point x="290.32" y="1217.76"/>
      <point x="290.32" y="1210.53" type="curve" smooth="yes"/>
      <point x="290.32" y="1173.84"/>
      <point x="327.964" y="1145.27"/>
      <point x="364.523" y="1145.27" type="curve" smooth="yes"/>
      <point x="383.422" y="1145.27"/>
      <point x="402.031" y="1152.9"/>
      <point x="415" y="1171" type="curve" smooth="yes"/>
      <point x="445" y="1214"/>
      <point x="470" y="1242"/>
      <point x="513" y="1242" type="curve" smooth="yes"/>
      <point x="584" y="1239"/>
      <point x="678" y="1143"/>
    </contour>
  </outline>
</glyph>
<glyph name="registered" format="1">
  <advance width="1719"/>
  <unicode hex="00AE"/>
  <outline>
    <contour>
      <point x="660" y="374" type="curve" smooth="yes"/>
      <point x="707" y="374"/>
      <point x="733" y="412"/>
      <point x="733" y="462" type="curve" smooth="yes"/>
      <point x="733" y="705" type="line"/>
      <point x="852" y="705" type="line"/>
      <point x="1030" y="406" type="line" smooth="yes"/>
      <point x="1043.58" y="381.996"/>
      <point x="1065.24" y="371.758"/>
      <point x="1086.95" y="371.758" type="curve" smooth="yes"/>
      <point x="1122.76" y="371.758"/>
      <point x="1158.69" y="399.611"/>
      <point x="1158.69" y="439.481" type="curve" smooth="yes"/>
      <point x="1158.69" y="451.97"/>
      <point x="1155.16" y="465.639"/>
      <point x="1147" y="480" type="curve"/>
      <point x="993" y="709" type="line"/>
      <point x="1121" y="727"/>
      <point x="1210" y="780"/>
      <point x="1210" y="918" type="curve" smooth="yes"/>
      <point x="1210" y="1086"/>
      <point x="1112" y="1139"/>
      <point x="894" y="1139" type="curve" smooth="yes"/>
      <point x="677" y="1139" type="line" smooth="yes"/>
      <point x="618" y="1139"/>
      <point x="590" y="1103"/>
      <point x="590" y="1041" type="curve" smooth="yes"/>
      <point x="590" y="442" type="line" smooth="yes"/>
      <point x="590" y="395"/>
      <point x="624" y="374"/>
    </contour>
    <contour>
      <point x="733" y="822" type="curve"/>
      <point x="733" y="1021" type="line"/>
      <point x="901" y="1021" type="line" smooth="yes"/>
      <point x="998" y="1021"/>
      <point x="1064" y="1001"/>
      <point x="1064" y="928" type="curve" smooth="yes"/>
      <point x="1064" y="835"/>
      <point x="996" y="821"/>
      <point x="902" y="821" type="curve" smooth="yes"/>
      <point x="879.6" y="821"/>
      <point x="802.8" y="822.28"/>
      <point x="758.64" y="822.28" type="curve" smooth="yes"/>
      <point x="747.6" y="822.28"/>
      <point x="738.6" y="822.2"/>
    </contour>
    <contour>
      <point x="862" y="192" type="curve" smooth="yes"/>
      <point x="529" y="192"/>
      <point x="287" y="441"/>
      <point x="287" y="753" type="curve" smooth="yes"/>
      <point x="287" y="1076"/>
      <point x="539" y="1314"/>
      <point x="862" y="1314" type="curve" smooth="yes"/>
      <point x="1196" y="1314"/>
      <point x="1436" y="1064"/>
      <point x="1436" y="753" type="curve" smooth="yes"/>
      <point x="1436" y="430"/>
      <point x="1185" y="192"/>
    </contour>
    <contour>
      <point x="862" y="58" type="curve" smooth="yes"/>
      <point x="1267" y="58"/>
      <point x="1591" y="377"/>
      <point x="1591" y="753" type="curve" smooth="yes"/>
      <point x="1591" y="1147"/>
      <point x="1255" y="1455"/>
      <point x="862" y="1455" type="curve" smooth="yes"/>
      <point x="455" y="1455"/>
      <point x="132" y="1132"/>
      <point x="132" y="753" type="curve" smooth="yes"/>
      <point x="132" y="370"/>
      <point x="463" y="58"/>
    </contour>
  </outline>
</glyph>
<glyph name="plusminus" format="1">
  <advance width="1300"/>
  <unicode hex="00B1"/>
  <outline>
    <contour>
      <point x="649" y="256" type="curve" smooth="yes"/>
      <point x="696" y="256"/>
      <point x="744" y="289"/>
      <point x="744" y="349" type="curve" smooth="yes"/>
      <point x="744" y="536" type="line"/>
      <point x="1057" y="536" type="line" smooth="yes"/>
      <point x="1123" y="536"/>
      <point x="1163" y="573"/>
      <point x="1163" y="631" type="curve" smooth="yes"/>
      <point x="1163" y="693"/>
      <point x="1119" y="724"/>
      <point x="1057" y="724" type="curve" smooth="yes"/>
      <point x="744" y="724" type="line"/>
      <point x="744" y="890" type="line" smooth="yes"/>
      <point x="744" y="965"/>
      <point x="708" y="1006"/>
      <point x="650" y="1006" type="curve" smooth="yes"/>
      <point x="585" y="1006"/>
      <point x="555" y="953"/>
      <point x="555" y="890" type="curve" smooth="yes"/>
      <point x="555" y="724" type="line"/>
      <point x="250" y="724" type="line" smooth="yes"/>
      <point x="175" y="724"/>
      <point x="138" y="688"/>
      <point x="138" y="631" type="curve" smooth="yes"/>
      <point x="138" y="568"/>
      <point x="181" y="536"/>
      <point x="244" y="536" type="curve" smooth="yes"/>
      <point x="555" y="536" type="line"/>
      <point x="555" y="372" type="line" smooth="yes"/>
      <point x="555" y="295"/>
      <point x="591" y="256"/>
    </contour>
    <contour>
      <point x="240" y="0" type="curve" smooth="yes"/>
      <point x="1050" y="0" type="line" smooth="yes"/>
      <point x="1122" y="0"/>
      <point x="1163" y="34"/>
      <point x="1163" y="94" type="curve" smooth="yes"/>
      <point x="1163" y="144"/>
      <point x="1131" y="188"/>
      <point x="1070" y="188" type="curve" smooth="yes"/>
      <point x="251" y="188" type="line" smooth="yes"/>
      <point x="176" y="188"/>
      <point x="138" y="151"/>
      <point x="138" y="94" type="curve" smooth="yes"/>
      <point x="138" y="33"/>
      <point x="178" y="0"/>
    </contour>
  </outline>
</glyph>
<glyph name="ordmasculine" format="1">
  <advance width="1050"/>
  <unicode hex="00BA"/>
  <outline>
    <contour>
      <point x="514" y="897" type="curve" smooth="yes"/>
      <point x="379" y="897"/>
      <point x="323" y="1015"/>
      <point x="323" y="1136" type="curve" smooth="yes"/>
      <point x="323" y="1263"/>
      <point x="381" y="1381"/>
      <point x="514" y="1381" type="curve" smooth="yes"/>
      <point x="646" y="1381"/>
      <point x="703" y="1264"/>
      <point x="703" y="1141" type="curve" smooth="yes"/>
      <point x="703" y="1014"/>
      <point x="646" y="897"/>
    </contour>
    <contour>
      <point x="513" y="766" type="curve" smooth="yes"/>
      <point x="799" y="766"/>
      <point x="925" y="942"/>
      <point x="925" y="1140" type="curve" smooth="yes"/>
      <point x="925" y="1344"/>
      <point x="794" y="1513"/>
      <point x="513" y="1513" type="curve" smooth="yes"/>
      <point x="224" y="1513"/>
      <point x="102" y="1333"/>
      <point x="102" y="1140" type="curve" smooth="yes"/>
      <point x="102" y="937"/>
      <point x="228" y="766"/>
    </contour>
  </outline>
</glyph>
<glyph name="threequarters" format="1">
  <advance width="1792"/>
  <unicode hex="00BE"/>
  <outline>
    <contour>
      <point x="335" y="582" type="curve" smooth="yes"/>
      <point x="511" y="582"/>
      <point x="627" y="674"/>
      <point x="627" y="813" type="curve" smooth="yes"/>
      <point x="627" y="925"/>
      <point x="562" y="1004"/>
      <point x="456" y="1027" type="curve"/>
      <point x="502" y="1081"/>
      <point x="608" y="1117"/>
      <point x="608" y="1214" type="curve" smooth="yes"/>
      <point x="608" y="1361"/>
      <point x="489" y="1451"/>
      <point x="333" y="1451" type="curve" smooth="yes"/>
      <point x="253" y="1451"/>
      <point x="81" y="1422"/>
      <point x="81" y="1349" type="curve" smooth="yes"/>
      <point x="81" y="1316"/>
      <point x="105" y="1290"/>
      <point x="142" y="1290" type="curve" smooth="yes"/>
      <point x="160" y="1290"/>
      <point x="253" y="1320"/>
      <point x="324" y="1320" type="curve" smooth="yes"/>
      <point x="400" y="1320"/>
      <point x="466" y="1282"/>
      <point x="466" y="1210" type="curve" smooth="yes"/>
      <point x="466" y="1128"/>
      <point x="398" y="1083"/>
      <point x="312" y="1082" type="curve" smooth="yes"/>
      <point x="264" y="1082" type="line" smooth="yes"/>
      <point x="229" y="1082"/>
      <point x="211" y="1058"/>
      <point x="211" y="1022" type="curve" smooth="yes"/>
      <point x="211" y="990"/>
      <point x="227" y="963"/>
      <point x="266" y="963" type="curve" smooth="yes"/>
      <point x="314" y="963" type="line" smooth="yes"/>
      <point x="415" y="963"/>
      <point x="478" y="901"/>
      <point x="478" y="824" type="curve" smooth="yes"/>
      <point x="478" y="744"/>
      <point x="418" y="711"/>
      <point x="332" y="711" type="curve" smooth="yes"/>
      <point x="256" y="711"/>
      <point x="180" y="747"/>
      <point x="150" y="747" type="curve" smooth="yes"/>
      <point x="105" y="747"/>
      <point x="85" y="716"/>
      <point x="85" y="686" type="curve" smooth="yes"/>
      <point x="85" y="619"/>
      <point x="246" y="582"/>
    </contour>
    <contour>
      <point x="1465" y="0" type="curve" smooth="yes"/>
      <point x="1512" y="0"/>
      <point x="1538" y="42"/>
      <point x="1538" y="98" type="curve" smooth="yes"/>
      <point x="1538" y="178" type="line"/>
      <point x="1593" y="178" type="line" smooth="yes"/>
      <point x="1635" y="178"/>
      <point x="1658" y="199"/>
      <point x="1658" y="231" type="curve" smooth="yes"/>
      <point x="1658" y="265"/>
      <point x="1633" y="284"/>
      <point x="1587" y="284" type="curve" smooth="yes"/>
      <point x="1538" y="284" type="line"/>
      <point x="1538" y="681" type="line" smooth="yes"/>
      <point x="1538" y="784"/>
      <point x="1504" y="836"/>
      <point x="1432" y="836" type="curve" smooth="yes"/>
      <point x="1370" y="836"/>
      <point x="1326" y="811"/>
      <point x="1287" y="734" type="curve"/>
      <point x="1008" y="285" type="line" smooth="yes"/>
      <point x="999" y="271"/>
      <point x="995" y="256"/>
      <point x="995" y="241" type="curve" smooth="yes"/>
      <point x="995" y="194"/>
      <point x="1036" y="178"/>
      <point x="1089" y="178" type="curve" smooth="yes"/>
      <point x="1393" y="178" type="line"/>
      <point x="1393" y="106" type="line" smooth="yes"/>
      <point x="1393" y="41"/>
      <point x="1418" y="0"/>
    </contour>
    <contour>
      <point x="657" y="-69" type="curve" smooth="yes"/>
      <point x="689" y="-69"/>
      <point x="721" y="-52"/>
      <point x="735" y="-9" type="curve" smooth="yes"/>
      <point x="1185" y="1300" type="line"/>
      <point x="1192" y="1324"/>
      <point x="1203" y="1356"/>
      <point x="1203" y="1378" type="curve" smooth="yes"/>
      <point x="1203" y="1432"/>
      <point x="1164" y="1463"/>
      <point x="1116" y="1463" type="curve" smooth="yes"/>
      <point x="1073" y="1463"/>
      <point x="1044" y="1422"/>
      <point x="1028" y="1371" type="curve" smooth="yes"/>
      <point x="585" y="78" type="line" smooth="yes"/>
      <point x="578" y="56"/>
      <point x="571" y="33"/>
      <point x="571" y="13" type="curve" smooth="yes"/>
      <point x="571" y="-36"/>
      <point x="613" y="-69"/>
    </contour>
    <contour>
      <point x="1142" y="280" type="line"/>
      <point x="1393" y="699" type="line"/>
      <point x="1393" y="280" type="line"/>
    </contour>
  </outline>
</glyph>
<glyph name="Oslash" format="1">
  <advance width="1608"/>
  <unicode hex="00D8"/>
  <outline>
    <contour>
      <point x="1027.21" y="1181.49" type="curve"/>
      <point x="510.197" y="368.742" type="line"/>
      <point x="462.386" y="454.084"/>
      <point x="440" y="573.652"/>
      <point x="440" y="727" type="curve" smooth="yes"/>
      <point x="440" y="1069"/>
      <point x="551" y="1244"/>
      <point x="810" y="1244" type="curve" smooth="yes"/>
      <point x="899.611" y="1244"/>
      <point x="971.505" y="1223.05"/>
    </contour>
    <contour>
      <point x="1134.93" y="1031.55" type="line"/>
      <point x="1165.55" y="952.02"/>
      <point x="1180" y="850.377"/>
      <point x="1180" y="727" type="curve" smooth="yes"/>
      <point x="1180" y="384"/>
      <point x="1068" y="210"/>
      <point x="810" y="210" type="curve" smooth="yes"/>
      <point x="740.465" y="210"/>
      <point x="681.535" y="222.639"/>
      <point x="632.545" y="247.82" type="curve"/>
    </contour>
    <contour>
      <point x="306" y="-201" type="curve" smooth="yes"/>
      <point x="344" y="-201"/>
      <point x="365" y="-171"/>
      <point x="391" y="-129" type="curve" smooth="yes"/>
      <point x="490.818" y="26.7194" type="line"/>
      <point x="581.947" y="-10.6211"/>
      <point x="688.549" y="-30"/>
      <point x="810" y="-30" type="curve" smooth="yes"/>
      <point x="1271" y="-30"/>
      <point x="1517" y="248"/>
      <point x="1517" y="727" type="curve" smooth="yes"/>
      <point x="1517" y="981.781"/>
      <point x="1447.4" y="1179.69"/>
      <point x="1312.87" y="1309.15" type="curve"/>
      <point x="1407" y="1456" type="line" smooth="yes"/>
      <point x="1423" y="1482"/>
      <point x="1435" y="1510"/>
      <point x="1435" y="1536" type="curve" smooth="yes"/>
      <point x="1435" y="1583"/>
      <point x="1394" y="1617"/>
      <point x="1350" y="1617" type="curve" smooth="yes"/>
      <point x="1321" y="1617"/>
      <point x="1294" y="1603"/>
      <point x="1275" y="1571" type="curve"/>
      <point x="1171.51" y="1408.32" type="line"/>
      <point x="1071.67" y="1458.04"/>
      <point x="950.876" y="1484"/>
      <point x="810" y="1484" type="curve" smooth="yes"/>
      <point x="350" y="1484"/>
      <point x="103" y="1206"/>
      <point x="103" y="727" type="curve" smooth="yes"/>
      <point x="103" y="448.849"/>
      <point x="186.289" y="238.475"/>
      <point x="346.21" y="110.957" type="curve"/>
      <point x="247" y="-45" type="line" smooth="yes"/>
      <point x="232" y="-69"/>
      <point x="222" y="-97"/>
      <point x="222" y="-121" type="curve" smooth="yes"/>
      <point x="222" y="-171"/>
      <point x="262" y="-201"/>
    </contour>
  </outline>
</glyph>
<glyph name="ae" format="1">
  <advance width="1755"/>
  <unicode hex="00E6"/>
  <outline>
    <contour>
      <point x="879" y="1002" type="move" name="top"/>
    </contour>
    <contour>
      <point x="430" y="-22" type="curve" smooth="yes"/>
      <point x="610" y="-22"/>
      <point x="758" y="35"/>
      <point x="833" y="167" type="curve"/>
      <point x="909" y="50"/>
      <point x="1030" y="-22"/>
      <point x="1194" y="-22" type="curve" smooth="yes"/>
      <point x="1328" y="-22"/>
      <point x="1619" y="23"/>
      <point x="1619" y="167" type="curve" smooth="yes"/>
      <point x="1619" y="208"/>
      <point x="1593" y="250"/>
      <point x="1552" y="250" type="curve" smooth="yes"/>
      <point x="1543" y="250"/>
      <point x="1534" y="249"/>
      <point x="1524" y="245" type="curve" smooth="yes"/>
      <point x="1442" y="215"/>
      <point x="1357" y="171"/>
      <point x="1245" y="171" type="curve" smooth="yes"/>
      <point x="1047" y="171"/>
      <point x="989" y="292"/>
      <point x="986" y="453" type="curve"/>
      <point x="1570" y="453" type="line" smooth="yes"/>
      <point x="1629" y="453"/>
      <point x="1664" y="479"/>
      <point x="1664" y="531" type="curve" smooth="yes"/>
      <point x="1661" y="823"/>
      <point x="1510" y="1031"/>
      <point x="1207" y="1031" type="curve" smooth="yes"/>
      <point x="1065" y="1031"/>
      <point x="951" y="973"/>
      <point x="871" y="878" type="curve"/>
      <point x="814" y="983"/>
      <point x="711" y="1028"/>
      <point x="565" y="1030" type="curve" smooth="yes"/>
      <point x="417" y="1030"/>
      <point x="240" y="1002"/>
      <point x="164" y="913" type="curve" smooth="yes"/>
      <point x="147" y="894"/>
      <point x="137" y="871"/>
      <point x="137" y="844" type="curve" smooth="yes"/>
      <point x="137" y="801"/>
      <point x="171" y="768"/>
      <point x="213" y="768" type="curve" smooth="yes"/>
      <point x="226" y="768"/>
      <point x="239" y="769"/>
      <point x="252" y="774" type="curve" smooth="yes"/>
      <point x="327" y="802"/>
      <point x="406" y="833"/>
      <point x="525" y="833" type="curve" smooth="yes"/>
      <point x="634" y="833"/>
      <point x="719" y="800"/>
      <point x="719" y="671" type="curve" smooth="yes"/>
      <point x="719" y="613" type="line"/>
      <point x="694" y="613"/>
      <point x="652" y="615"/>
      <point x="627" y="615" type="curve" smooth="yes"/>
      <point x="277" y="615"/>
      <point x="57" y="522"/>
      <point x="57" y="274" type="curve" smooth="yes"/>
      <point x="57" y="84"/>
      <point x="203" y="-22"/>
    </contour>
    <contour>
      <point x="487" y="138" type="curve"/>
      <point x="386" y="139"/>
      <point x="311" y="190"/>
      <point x="311" y="295" type="curve" smooth="yes"/>
      <point x="311" y="466"/>
      <point x="585" y="472"/>
      <point x="718" y="472" type="curve"/>
      <point x="718" y="402" type="line"/>
      <point x="713" y="232"/>
      <point x="620" y="139"/>
    </contour>
    <contour>
      <point x="986" y="595" type="line"/>
      <point x="995" y="752"/>
      <point x="1072" y="865"/>
      <point x="1209" y="865" type="curve" smooth="yes"/>
      <point x="1345" y="865"/>
      <point x="1416" y="763"/>
      <point x="1425" y="595" type="curve"/>
    </contour>
  </outline>
</glyph>
<glyph name="OE" format="1">
  <advance width="1998"/>
  <unicode hex="0152"/>
  <outline>
    <contour>
      <point x="729" y="-20" type="curve" smooth="yes"/>
      <point x="801" y="-20"/>
      <point x="1039" y="-1"/>
      <point x="1068" y="0" type="curve"/>
      <point x="1761" y="0" type="line" smooth="yes"/>
      <point x="1848" y="0"/>
      <point x="1899" y="40"/>
      <point x="1899" y="116" type="curve" smooth="yes"/>
      <point x="1899" y="205"/>
      <point x="1820" y="233"/>
      <point x="1732" y="233" type="curve" smooth="yes"/>
      <point x="1324" y="233" type="line"/>
      <point x="1324" y="622" type="line"/>
      <point x="1672" y="622" type="line" smooth="yes"/>
      <point x="1776" y="622"/>
      <point x="1838" y="655"/>
      <point x="1838" y="737" type="curve" smooth="yes"/>
      <point x="1838" y="825"/>
      <point x="1767" y="854"/>
      <point x="1686" y="854" type="curve" smooth="yes"/>
      <point x="1324" y="854" type="line"/>
      <point x="1324" y="1213" type="line"/>
      <point x="1716" y="1213" type="line" smooth="yes"/>
      <point x="1821" y="1213"/>
      <point x="1882" y="1246"/>
      <point x="1882" y="1330" type="curve" smooth="yes"/>
      <point x="1882" y="1410"/>
      <point x="1822" y="1446"/>
      <point x="1742" y="1446" type="curve" smooth="yes"/>
      <point x="1105" y="1446" type="line" smooth="yes"/>
      <point x="1064" y="1446"/>
      <point x="880" y="1465"/>
      <point x="757" y="1465" type="curve" smooth="yes"/>
      <point x="337" y="1465"/>
      <point x="94" y="1184"/>
      <point x="94" y="722" type="curve" smooth="yes"/>
      <point x="94" y="257"/>
      <point x="345" y="-20"/>
    </contour>
    <contour>
      <point x="751" y="197" type="curve" smooth="yes"/>
      <point x="508" y="197"/>
      <point x="410" y="421"/>
      <point x="410" y="727" type="curve" smooth="yes"/>
      <point x="410" y="1035"/>
      <point x="521" y="1248"/>
      <point x="753" y="1248" type="curve" smooth="yes"/>
      <point x="911" y="1248"/>
      <point x="1002" y="1232"/>
      <point x="1016" y="1226" type="curve"/>
      <point x="1016" y="223" type="line"/>
      <point x="1006" y="216"/>
      <point x="901" y="198"/>
    </contour>
  </outline>
</glyph>
<glyph name="breve" format="1">
  <advance width="569"/>
  <unicode hex="02D8"/>
  <outline>
    <contour>
      <point x="286" y="1040" type="move" name="_top"/>
    </contour>
    <contour>
      <point x="285" y="1195" type="curve" smooth="yes"/>
      <point x="391" y="1195"/>
      <point x="476" y="1229"/>
      <point x="528" y="1292" type="curve"/>
      <point x="565" y="1319"/>
      <point x="603" y="1373"/>
      <point x="603" y="1423" type="curve" smooth="yes"/>
      <point x="603" y="1472"/>
      <point x="565" y="1500"/>
      <point x="523" y="1500" type="curve" smooth="yes"/>
      <point x="486" y="1500"/>
      <point x="457" y="1472"/>
      <point x="434" y="1437" type="curve"/>
      <point x="399" y="1388"/>
      <point x="358" y="1372"/>
      <point x="285" y="1372" type="curve" smooth="yes"/>
      <point x="209" y="1372"/>
      <point x="169" y="1389"/>
      <point x="133" y="1441" type="curve"/>
      <point x="110" y="1477"/>
      <point x="81" y="1500"/>
      <point x="46" y="1500" type="curve" smooth="yes"/>
      <point x="6" y="1500"/>
      <point x="-34" y="1473"/>
      <point x="-34" y="1426" type="curve" smooth="yes"/>
      <point x="-34" y="1404"/>
      <point x="-27" y="1384"/>
      <point x="-16" y="1362" type="curve" smooth="yes"/>
      <point x="37" y="1253"/>
      <point x="146" y="1195"/>
    </contour>
  </outline>
</glyph>
<glyph name="ogonek" format="1">
  <advance width="569"/>
  <unicode hex="02DB"/>
  <outline>
    <contour>
      <point x="243" y="0" type="move" name="_ogonek"/>
    </contour>
    <contour>
      <point x="459" y="-455" type="curve"/>
      <point x="459" y="-330" type="line"/>
      <point x="377.176" y="-330"/>
      <point x="259.059" y="-299.044"/>
      <point x="259.059" y="-176.302" type="curve" smooth="yes"/>
      <point x="259.059" y="-131.036"/>
      <point x="275.124" y="-73.2853"/>
      <point x="315" y="0" type="curve"/>
      <point x="182" y="0" type="line"/>
      <point x="96.982" y="-99.6014"/>
      <point x="60.7762" y="-194.293"/>
      <point x="60.7762" y="-273.469" type="curve" smooth="yes"/>
      <point x="60.7762" y="-403.033"/>
      <point x="157.729" y="-491.051"/>
      <point x="296.393" y="-491.051" type="curve" smooth="yes"/>
      <point x="346.086" y="-491.051"/>
      <point x="401.136" y="-479.747"/>
    </contour>
  </outline>
</glyph>
<glyph name="tilde" format="1">
  <advance width="569"/>
  <unicode hex="02DC"/>
  <outline>
    <contour>
      <point x="293" y="1040" type="move" name="_top"/>
    </contour>
    <contour>
      <point x="3" y="1206" type="curve" smooth="yes"/>
      <point x="31" y="1206"/>
      <point x="57" y="1215"/>
      <point x="75" y="1247" type="curve" smooth="yes"/>
      <point x="93" y="1279"/>
      <point x="114" y="1306"/>
      <point x="147" y="1306" type="curve" smooth="yes"/>
      <point x="217" y="1306"/>
      <point x="314" y="1206"/>
      <point x="424" y="1206" type="curve" smooth="yes"/>
      <point x="526.316" y="1206"/>
      <point x="617.027" y="1281.68"/>
      <point x="617.027" y="1410.83" type="curve" smooth="yes"/>
      <point x="617.027" y="1443.82"/>
      <point x="590.478" y="1466.02"/>
      <point x="562" y="1467" type="curve" smooth="yes"/>
      <point x="556" y="1471"/>
      <point x="549" y="1474"/>
      <point x="541" y="1474" type="curve" smooth="yes"/>
      <point x="469" y="1457"/>
      <point x="473" y="1374"/>
      <point x="423" y="1374" type="curve" smooth="yes"/>
      <point x="354" y="1374"/>
      <point x="256" y="1472"/>
      <point x="137" y="1472" type="curve" smooth="yes"/>
      <point x="22" y="1472"/>
      <point x="-41" y="1398"/>
      <point x="-59" y="1277" type="curve" smooth="yes"/>
      <point x="-60" y="1273"/>
      <point x="-61" y="1270"/>
      <point x="-61" y="1265" type="curve" smooth="yes"/>
      <point x="-61" y="1226"/>
      <point x="-32" y="1206"/>
    </contour>
  </outline>
</glyph>
<glyph name="uni0326" format="1">
  <advance width="633"/>
  <unicode hex="0326"/>
  <outline>
    <contour>
      <point x="347" y="0" type="move" name="_bot"/>
    </contour>
    <contour>
      <point x="142" y="-657" type="curve" smooth="yes"/>
      <point x="249" y="-657" type="line" smooth="yes"/>
      <point x="250.104" y="-657.038"/>
      <point x="251.189" y="-657.057"/>
      <point x="252.256" y="-657.057" type="curve" smooth="yes"/>
      <point x="279.211" y="-657.057"/>
      <point x="294.419" y="-644.782"/>
      <point x="305" y="-614" type="curve" smooth="yes"/>
      <point x="474" y="-160" type="line" smooth="yes"/>
      <point x="475.488" y="-155.833"/>
      <point x="476.799" y="-149.451"/>
      <point x="476.799" y="-142.463" type="curve" smooth="yes"/>
      <point x="476.799" y="-125.973"/>
      <point x="469.499" y="-106.107"/>
      <point x="440" y="-104" type="curve"/>
      <point x="270" y="-104" type="line"/>
      <point x="238" y="-105"/>
      <point x="205" y="-113"/>
      <point x="197" y="-160" type="curve" smooth="yes"/>
      <point x="118" y="-614" type="line" smooth="yes"/>
      <point x="117.484" y="-617.098"/>
      <point x="116.967" y="-621.397"/>
      <point x="116.967" y="-626.086" type="curve" smooth="yes"/>
      <point x="116.967" y="-639.559"/>
      <point x="121.23" y="-656.258"/>
    </contour>
  </outline>
</glyph>
<glyph name="Delta" format="1">
  <advance width="1354"/>
  <unicode hex="0394"/>
  <outline>
    <contour>
      <point x="27" y="0" type="line"/>
      <point x="1327" y="0" type="line"/>
      <point x="847" y="1370" type="line"/>
      <point x="785" y="1510"/>
      <point x="547" y="1500"/>
      <point x="504" y="1370" type="curve" smooth="yes"/>
    </contour>
    <contour>
      <point x="327" y="163" type="line"/>
      <point x="669" y="1209" type="line"/>
      <point x="1023" y="163" type="line"/>
    </contour>
  </outline>
</glyph>
<glyph name="uni0394" format="1">
  <advance width="1354"/>
  <unicode hex="0394"/>
  <outline>
    <contour>
      <point x="27" y="0" type="line"/>
      <point x="1327" y="0" type="line"/>
      <point x="847" y="1370" type="line"/>
      <point x="816.573" y="1438.71"/>
      <point x="743.76" y="1471.28"/>
      <point x="672.408" y="1471.28" type="curve" smooth="yes"/>
      <point x="598.366" y="1471.28"/>
      <point x="525.898" y="1436.2"/>
      <point x="504" y="1370" type="curve"/>
    </contour>
    <contour>
      <point x="327" y="163" type="line"/>
      <point x="669" y="1209" type="line"/>
      <point x="1023" y="163" type="line"/>
    </contour>
  </outline>
</glyph>
<glyph name="Sigma" format="1">
  <advance width="1422"/>
  <unicode hex="03A3"/>
  <outline>
    <contour>
      <point x="378" y="-225" type="curve" smooth="yes"/>
      <point x="1163" y="-224" type="line" smooth="yes"/>
      <point x="1246.25" y="-224"/>
      <point x="1288.25" y="-152.826"/>
      <point x="1288.25" y="-81.8645" type="curve" smooth="yes"/>
      <point x="1288.25" y="-11.327"/>
      <point x="1246.75" y="59"/>
      <point x="1163" y="59" type="curve" smooth="yes"/>
      <point x="458" y="59" type="line"/>
      <point x="888" y="451" type="line" smooth="yes"/>
      <point x="946.889" y="505.199"/>
      <point x="980.792" y="559.941"/>
      <point x="980.792" y="617.066" type="curve" smooth="yes"/>
      <point x="980.792" y="669.556"/>
      <point x="952.167" y="724.058"/>
      <point x="888" y="782" type="curve" smooth="yes"/>
      <point x="458" y="1166" type="line"/>
      <point x="1163" y="1166" type="line" smooth="yes"/>
      <point x="1246.75" y="1166"/>
      <point x="1288.25" y="1236.33"/>
      <point x="1288.25" y="1306.86" type="curve" smooth="yes"/>
      <point x="1288.25" y="1377.83"/>
      <point x="1246.25" y="1449"/>
      <point x="1163" y="1449" type="curve" smooth="yes"/>
      <point x="382" y="1449" type="line" smooth="yes"/>
      <point x="241.303" y="1449"/>
      <point x="145.588" y="1367"/>
      <point x="145.588" y="1257.24" type="curve" smooth="yes"/>
      <point x="145.588" y="1193.04"/>
      <point x="178.34" y="1119.34"/>
      <point x="254" y="1047" type="curve" smooth="yes"/>
      <point x="714" y="613" type="line"/>
      <point x="254" y="168" type="line" smooth="yes"/>
      <point x="189.108" y="104.24"/>
      <point x="159.374" y="32.6506"/>
      <point x="159.374" y="-31.7843" type="curve" smooth="yes"/>
      <point x="159.374" y="-138.137"/>
      <point x="240.379" y="-225"/>
    </contour>
  </outline>
</glyph>
<glyph name="quotedblright" format="1">
  <advance width="1170"/>
  <unicode hex="201D"/>
  <outline>
    <contour>
      <point x="210" y="878" type="curve"/>
      <point x="313" y="878" type="line" smooth="yes"/>
      <point x="342" y="878"/>
      <point x="357" y="889"/>
      <point x="369" y="921" type="curve" smooth="yes"/>
      <point x="550" y="1411" type="line" smooth="yes"/>
      <point x="555" y="1425"/>
      <point x="558" y="1466"/>
      <point x="516" y="1467" type="curve"/>
      <point x="343" y="1467" type="line"/>
      <point x="311" y="1466"/>
      <point x="278" y="1458"/>
      <point x="270" y="1411" type="curve" smooth="yes"/>
      <point x="186" y="921" type="line" smooth="yes"/>
      <point x="184" y="909"/>
      <point x="182" y="879"/>
    </contour>
    <contour>
      <point x="666" y="878" type="curve" smooth="yes"/>
      <point x="769" y="878" type="line" smooth="yes"/>
      <point x="798" y="878"/>
      <point x="813" y="889"/>
      <point x="825" y="921" type="curve" smooth="yes"/>
      <point x="1006" y="1411" type="line" smooth="yes"/>
      <point x="1011" y="1425"/>
      <point x="1014" y="1466"/>
      <point x="972" y="1467" type="curve"/>
      <point x="799" y="1467" type="line"/>
      <point x="767" y="1466"/>
      <point x="734" y="1458"/>
      <point x="726" y="1411" type="curve" smooth="yes"/>
      <point x="642" y="921" type="line" smooth="yes"/>
      <point x="640" y="909"/>
      <point x="638" y="878"/>
    </contour>
  </outline>
</glyph>
<glyph name="quotedblbase" format="1">
  <advance width="1170"/>
  <unicode hex="201E"/>
  <outline>
    <contour>
      <point x="214" y="-289" type="curve"/>
      <point x="316" y="-289" type="line" smooth="yes"/>
      <point x="345" y="-289"/>
      <point x="361" y="-278"/>
      <point x="372" y="-246" type="curve" smooth="yes"/>
      <point x="553" y="244" type="line" smooth="yes"/>
      <point x="558" y="258"/>
      <point x="561" y="299"/>
      <point x="519" y="300" type="curve"/>
      <point x="347" y="300" type="line"/>
      <point x="315" y="299"/>
      <point x="282" y="291"/>
      <point x="274" y="244" type="curve" smooth="yes"/>
      <point x="190" y="-246" type="line" smooth="yes"/>
      <point x="188" y="-258"/>
      <point x="186" y="-288"/>
    </contour>
    <contour>
      <point x="670" y="-289" type="curve"/>
      <point x="773" y="-289" type="line" smooth="yes"/>
      <point x="802" y="-289"/>
      <point x="817" y="-278"/>
      <point x="829" y="-246" type="curve" smooth="yes"/>
      <point x="1010" y="244" type="line" smooth="yes"/>
      <point x="1015" y="258"/>
      <point x="1018" y="299"/>
      <point x="976" y="300" type="curve"/>
      <point x="803" y="300" type="line"/>
      <point x="771" y="299"/>
      <point x="738" y="291"/>
      <point x="730" y="244" type="curve" smooth="yes"/>
      <point x="646" y="-246" type="line" smooth="yes"/>
      <point x="644" y="-258"/>
      <point x="642" y="-288"/>
    </contour>
  </outline>
</glyph>
<glyph name="ellipsis" format="1">
  <advance width="1901"/>
  <unicode hex="2026"/>
  <outline>
    <contour>
      <point x="316" y="-5" type="curve" smooth="yes"/>
      <point x="406" y="-5"/>
      <point x="470" y="65"/>
      <point x="470" y="146" type="curve" smooth="yes"/>
      <point x="470" y="234"/>
      <point x="400" y="296"/>
      <point x="316" y="296" type="curve" smooth="yes"/>
      <point x="225" y="296"/>
      <point x="162" y="225"/>
      <point x="162" y="146" type="curve" smooth="yes"/>
      <point x="162" y="61"/>
      <point x="230" y="-5"/>
    </contour>
    <contour>
      <point x="950" y="-5" type="curve" smooth="yes"/>
      <point x="1041" y="-5"/>
      <point x="1105" y="65"/>
      <point x="1105" y="146" type="curve" smooth="yes"/>
      <point x="1105" y="236"/>
      <point x="1031" y="296"/>
      <point x="950" y="296" type="curve" smooth="yes"/>
      <point x="858" y="296"/>
      <point x="795" y="225"/>
      <point x="795" y="146" type="curve" smooth="yes"/>
      <point x="795" y="61"/>
      <point x="863" y="-5"/>
    </contour>
    <contour>
      <point x="1584" y="-5" type="curve" smooth="yes"/>
      <point x="1673" y="-5"/>
      <point x="1738" y="65"/>
      <point x="1738" y="146" type="curve" smooth="yes"/>
      <point x="1738" y="234"/>
      <point x="1667" y="296"/>
      <point x="1584" y="296" type="curve" smooth="yes"/>
      <point x="1492" y="296"/>
      <point x="1430" y="225"/>
      <point x="1430" y="146" type="curve" smooth="yes"/>
      <point x="1430" y="61"/>
      <point x="1494" y="-5"/>
    </contour>
  </outline>
</glyph>
<glyph name="guilsinglleft" format="1">
  <advance width="633"/>
  <unicode hex="2039"/>
  <outline>
    <contour>
      <point x="429" y="29" type="curve" smooth="yes"/>
      <point x="482" y="29"/>
      <point x="532" y="65"/>
      <point x="532" y="120" type="curve" smooth="yes"/>
      <point x="532" y="136"/>
      <point x="527" y="152"/>
      <point x="520" y="168" type="curve" smooth="yes"/>
      <point x="355" y="532" type="line"/>
      <point x="516" y="885" type="line" smooth="yes"/>
      <point x="523" y="903"/>
      <point x="531" y="924"/>
      <point x="531" y="943" type="curve" smooth="yes"/>
      <point x="531" y="996"/>
      <point x="483" y="1035"/>
      <point x="432" y="1035" type="curve" smooth="yes"/>
      <point x="392" y="1035"/>
      <point x="354" y="1015"/>
      <point x="322" y="962" type="curve"/>
      <point x="75" y="532" type="line"/>
      <point x="313" y="119" type="line" smooth="yes"/>
      <point x="348" y="59"/>
      <point x="385" y="29"/>
    </contour>
  </outline>
</glyph>
<glyph name="uni2074" format="1">
  <advance width="768"/>
  <unicode hex="2074"/>
  <outline>
    <contour>
      <point x="513" y="612" type="curve" smooth="yes"/>
      <point x="559" y="612"/>
      <point x="586" y="652"/>
      <point x="586" y="709" type="curve" smooth="yes"/>
      <point x="586" y="789" type="line"/>
      <point x="647" y="789" type="line" smooth="yes"/>
      <point x="686" y="789"/>
      <point x="706" y="814"/>
      <point x="706" y="842" type="curve" smooth="yes"/>
      <point x="706" y="875"/>
      <point x="680" y="895"/>
      <point x="641" y="895" type="curve" smooth="yes"/>
      <point x="586" y="895" type="line"/>
      <point x="586" y="1284" type="line" smooth="yes"/>
      <point x="586" y="1390"/>
      <point x="555" y="1447"/>
      <point x="482" y="1447" type="curve" smooth="yes"/>
      <point x="418" y="1447"/>
      <point x="376" y="1422"/>
      <point x="335" y="1345" type="curve"/>
      <point x="57" y="896" type="line" smooth="yes"/>
      <point x="48" y="883"/>
      <point x="43" y="868"/>
      <point x="43" y="852" type="curve" smooth="yes"/>
      <point x="43" y="805"/>
      <point x="84" y="789"/>
      <point x="137" y="789" type="curve" smooth="yes"/>
      <point x="441" y="789" type="line"/>
      <point x="441" y="717" type="line" smooth="yes"/>
      <point x="441" y="653"/>
      <point x="465" y="612"/>
    </contour>
    <contour>
      <point x="190" y="891" type="line"/>
      <point x="441" y="1311" type="line"/>
      <point x="441" y="891" type="line"/>
    </contour>
  </outline>
</glyph>
<glyph name="emptyset" format="1">
  <advance width="1745"/>
  <unicode hex="2205"/>
  <outline>
    <contour>
      <point x="673.576" y="301.945" type="curve"/>
      <point x="1203.8" y="998.858" type="line"/>
      <point x="1278.26" y="920.256"/>
      <point x="1322" y="814.247"/>
      <point x="1322" y="698" type="curve" smooth="yes"/>
      <point x="1322" y="440"/>
      <point x="1117" y="259"/>
      <point x="874" y="259" type="curve" smooth="yes"/>
      <point x="800.536" y="259"/>
      <point x="732.891" y="274.41"/>
    </contour>
    <contour>
      <point x="566.187" y="372.759" type="line"/>
      <point x="477.1" y="452.987"/>
      <point x="424" y="568.856"/>
      <point x="424" y="698" type="curve" smooth="yes"/>
      <point x="424" y="947"/>
      <point x="619" y="1136"/>
      <point x="874" y="1136" type="curve" smooth="yes"/>
      <point x="958.866" y="1136"/>
      <point x="1036.06" y="1115.01"/>
      <point x="1101.55" y="1078.36" type="curve"/>
    </contour>
    <contour>
      <point x="361.594" y="82.0377" type="curve" smooth="yes"/>
      <point x="361.594" y="50.8486"/>
      <point x="387.955" y="14.7158"/>
      <point x="424.836" y="14.7158" type="curve" smooth="yes"/>
      <point x="456.671" y="14.7158"/>
      <point x="483.195" y="51.5779"/>
      <point x="507" y="83" type="curve" smooth="yes"/>
      <point x="587.849" y="189.267" type="line"/>
      <point x="674.146" y="145.459"/>
      <point x="772.043" y="121"/>
      <point x="874" y="121" type="curve" smooth="yes"/>
      <point x="1206" y="121"/>
      <point x="1478" y="381"/>
      <point x="1478" y="698" type="curve" smooth="yes"/>
      <point x="1478" y="866.072"/>
      <point x="1405.58" y="1012.37"/>
      <point x="1293.1" y="1116.24" type="curve"/>
      <point x="1369" y="1216" type="line"/>
      <point x="1386.34" y="1243.09"/>
      <point x="1411.42" y="1270.02"/>
      <point x="1411.42" y="1300.01" type="curve" smooth="yes"/>
      <point x="1411.42" y="1333.09"/>
      <point x="1384.98" y="1363.6"/>
      <point x="1349.32" y="1363.6" type="curve" smooth="yes"/>
      <point x="1330.05" y="1363.6"/>
      <point x="1310.51" y="1354.6"/>
      <point x="1294" y="1332" type="curve" smooth="yes"/>
      <point x="1189" y="1193.61" type="line"/>
      <point x="1095.58" y="1248.79"/>
      <point x="986.805" y="1280"/>
      <point x="874" y="1280" type="curve" smooth="yes"/>
      <point x="526" y="1280"/>
      <point x="267" y="1006"/>
      <point x="267" y="698" type="curve" smooth="yes"/>
      <point x="267" y="518.196"/>
      <point x="351.015" y="363.032"/>
      <point x="479.901" y="259.036" type="curve"/>
      <point x="404" y="159" type="line" smooth="yes"/>
      <point x="385.283" y="135.879"/>
      <point x="361.594" y="104.449"/>
    </contour>
  </outline>
</glyph>
<glyph name="integral" format="1">
  <advance width="824"/>
  <unicode hex="222B"/>
  <outline>
    <contour>
      <point x="182" y="-357" type="curve"/>
      <point x="375" y="-357"/>
      <point x="543" y="-255"/>
      <point x="543" y="204" type="curve" smooth="yes"/>
      <point x="543" y="563"/>
      <point x="511" y="874"/>
      <point x="511" y="1213" type="curve" smooth="yes"/>
      <point x="511" y="1489"/>
      <point x="550" y="1609"/>
      <point x="672" y="1618" type="curve" smooth="yes"/>
      <point x="749" y="1625"/>
      <point x="798" y="1650"/>
      <point x="798" y="1709" type="curve" smooth="yes"/>
      <point x="798" y="1755"/>
      <point x="756" y="1798"/>
      <point x="665" y="1798" type="curve" smooth="yes"/>
      <point x="425" y="1798"/>
      <point x="291" y="1628"/>
      <point x="291" y="1239" type="curve" smooth="yes"/>
      <point x="291" y="888"/>
      <point x="325" y="571"/>
      <point x="325" y="206" type="curve" smooth="yes"/>
      <point x="325" y="-94"/>
      <point x="257" y="-168"/>
      <point x="161" y="-168" type="curve" smooth="yes"/>
      <point x="85" y="-168"/>
      <point x="44" y="-208"/>
      <point x="44" y="-258" type="curve" smooth="yes"/>
      <point x="44" y="-306"/>
      <point x="86" y="-352"/>
    </contour>
  </outline>
</glyph>
<glyph name="notequal" format="1">
  <advance width="1188"/>
  <unicode hex="2260"/>
  <outline>
    <contour>
      <point x="382" y="-36" type="curve" smooth="yes"/>
      <point x="422" y="-36"/>
      <point x="457" y="-10"/>
      <point x="478" y="42" type="curve"/>
      <point x="573" y="261" type="line"/>
      <point x="1016" y="261" type="line" smooth="yes"/>
      <point x="1088" y="261"/>
      <point x="1123" y="298"/>
      <point x="1123" y="356" type="curve" smooth="yes"/>
      <point x="1123" y="422"/>
      <point x="1075" y="451"/>
      <point x="1015" y="451" type="curve" smooth="yes"/>
      <point x="646" y="451" type="line"/>
      <point x="750" y="696" type="line"/>
      <point x="1016" y="696" type="line" smooth="yes"/>
      <point x="1086" y="696"/>
      <point x="1123" y="731"/>
      <point x="1123" y="788" type="curve" smooth="yes"/>
      <point x="1123" y="855"/>
      <point x="1075" y="884"/>
      <point x="1015" y="884" type="curve" smooth="yes"/>
      <point x="822" y="884" type="line"/>
      <point x="890" y="1037" type="line" smooth="yes"/>
      <point x="898" y="1057"/>
      <point x="902" y="1077"/>
      <point x="903" y="1096" type="curve" smooth="yes"/>
      <point x="903" y="1146"/>
      <point x="860" y="1180"/>
      <point x="814" y="1183" type="curve" smooth="yes"/>
      <point x="766" y="1183"/>
      <point x="735" y="1161"/>
      <point x="714" y="1105" type="curve"/>
      <point x="621" y="884" type="line"/>
      <point x="207" y="884" type="line" smooth="yes"/>
      <point x="134" y="884"/>
      <point x="99" y="847"/>
      <point x="99" y="789" type="curve" smooth="yes"/>
      <point x="99" y="739"/>
      <point x="130" y="696"/>
      <point x="192" y="696" type="curve" smooth="yes"/>
      <point x="548" y="696" type="line"/>
      <point x="444" y="451" type="line"/>
      <point x="206" y="451" type="line" smooth="yes"/>
      <point x="134" y="451"/>
      <point x="100" y="412"/>
      <point x="100" y="356" type="curve" smooth="yes"/>
      <point x="100" y="290"/>
      <point x="146" y="261"/>
      <point x="207" y="261" type="curve" smooth="yes"/>
      <point x="372" y="261" type="line"/>
      <point x="304" y="110" type="line" smooth="yes"/>
      <point x="295" y="90"/>
      <point x="290" y="69"/>
      <point x="290" y="53" type="curve" smooth="yes"/>
      <point x="290" y="0"/>
      <point x="332" y="-36"/>
    </contour>
  </outline>
</glyph>
<glyph name="lessequal" format="1">
  <advance width="1220"/>
  <unicode hex="2264"/>
  <outline>
    <contour>
      <point x="1035" y="291" type="curve" smooth="yes"/>
      <point x="1083" y="291"/>
      <point x="1118" y="334"/>
      <point x="1118" y="380" type="curve" smooth="yes"/>
      <point x="1118" y="420"/>
      <point x="1086" y="448"/>
      <point x="1041" y="468" type="curve" smooth="yes"/>
      <point x="326" y="768" type="line"/>
      <point x="1039" y="1057" type="line" smooth="yes"/>
      <point x="1087" y="1077"/>
      <point x="1118" y="1104"/>
      <point x="1118" y="1145" type="curve" smooth="yes"/>
      <point x="1118" y="1193"/>
      <point x="1080" y="1236"/>
      <point x="1032" y="1236" type="curve" smooth="yes"/>
      <point x="1015" y="1236"/>
      <point x="991" y="1226"/>
      <point x="972" y="1218" type="curve" smooth="yes"/>
      <point x="158" y="883" type="line" smooth="yes"/>
      <point x="94" y="856"/>
      <point x="64" y="819"/>
      <point x="64" y="769" type="curve" smooth="yes"/>
      <point x="64" y="725"/>
      <point x="90" y="685"/>
      <point x="143" y="662" type="curve" smooth="yes"/>
      <point x="974" y="309" type="line" smooth="yes"/>
      <point x="993" y="301"/>
      <point x="1017" y="291"/>
    </contour>
    <contour>
      <point x="169" y="-5" type="curve" smooth="yes"/>
      <point x="995" y="-5" type="line" smooth="yes"/>
      <point x="1054" y="-5"/>
      <point x="1090" y="22"/>
      <point x="1090" y="74" type="curve" smooth="yes"/>
      <point x="1090" y="127"/>
      <point x="1055" y="154"/>
      <point x="1005" y="154" type="curve" smooth="yes"/>
      <point x="188" y="154" type="line" smooth="yes"/>
      <point x="127" y="154"/>
      <point x="95" y="126"/>
      <point x="95" y="75" type="curve" smooth="yes"/>
      <point x="95" y="37"/>
      <point x="118" y="-5"/>
    </contour>
  </outline>
</glyph>
<glyph name="greaterequal" format="1">
  <advance width="1220"/>
  <unicode hex="2265"/>
  <outline>
    <contour>
      <point x="185" y="298" type="curve" smooth="yes"/>
      <point x="196" y="298"/>
      <point x="208" y="299"/>
      <point x="220" y="304" type="curve" smooth="yes"/>
      <point x="1060" y="650" type="line" smooth="yes"/>
      <point x="1123" y="677"/>
      <point x="1154" y="715"/>
      <point x="1154" y="764" type="curve" smooth="yes"/>
      <point x="1154" y="816"/>
      <point x="1120" y="853"/>
      <point x="1061" y="878" type="curve" smooth="yes"/>
      <point x="244" y="1223" type="line" smooth="yes"/>
      <point x="224" y="1232"/>
      <point x="201" y="1242"/>
      <point x="183" y="1242" type="curve" smooth="yes"/>
      <point x="133" y="1242"/>
      <point x="99" y="1196"/>
      <point x="99" y="1153" type="curve" smooth="yes"/>
      <point x="99" y="1110"/>
      <point x="132" y="1085"/>
      <point x="178" y="1065" type="curve" smooth="yes"/>
      <point x="891" y="765" type="line"/>
      <point x="181" y="478" type="line" smooth="yes"/>
      <point x="131" y="456"/>
      <point x="100" y="428"/>
      <point x="100" y="388" type="curve" smooth="yes"/>
      <point x="100" y="341"/>
      <point x="135" y="298"/>
    </contour>
    <contour>
      <point x="191" y="-5" type="curve" smooth="yes"/>
      <point x="1018" y="-5" type="line" smooth="yes"/>
      <point x="1076" y="-5"/>
      <point x="1112" y="20"/>
      <point x="1112" y="74" type="curve" smooth="yes"/>
      <point x="1112" y="127"/>
      <point x="1077" y="154"/>
      <point x="1027" y="154" type="curve" smooth="yes"/>
      <point x="210" y="154" type="line" smooth="yes"/>
      <point x="149" y="154"/>
      <point x="117" y="126"/>
      <point x="117" y="75" type="curve" smooth="yes"/>
      <point x="117" y="37"/>
      <point x="140" y="-5"/>
    </contour>
  </outline>
</glyph>
<glyph name="lozenge" format="1">
  <advance width="1314"/>
  <unicode hex="25CA"/>
  <outline>
    <contour>
      <point x="652" y="-105" type="curve" smooth="yes"/>
      <point x="691" y="-105"/>
      <point x="731" y="-83"/>
      <point x="757" y="-36" type="curve" smooth="yes"/>
      <point x="1190" y="726" type="line"/>
      <point x="795" y="1436" type="line" smooth="yes"/>
      <point x="759" y="1503"/>
      <point x="715" y="1568"/>
      <point x="658" y="1568" type="curve" smooth="yes"/>
      <point x="608" y="1568"/>
      <point x="573" y="1530"/>
      <point x="539" y="1467" type="curve" smooth="yes"/>
      <point x="126" y="726" type="line"/>
      <point x="520" y="25" type="line" smooth="yes"/>
      <point x="554" y="-38"/>
      <point x="595" y="-105"/>
    </contour>
    <contour>
      <point x="655" y="163" type="line"/>
      <point x="338" y="733" type="line"/>
      <point x="652" y="1296" type="line"/>
      <point x="659" y="1296" type="line"/>
      <point x="974" y="721" type="line"/>
      <point x="661" y="163" type="line"/>
    </contour>
  </outline>
</glyph>
